<svg xmlns="http://www.w3.org/2000/svg" viewBox="0 0 37 37" shape-rendering="crispEdges" role="img" aria-hidden="true">
  <rect width="37" height="37" fill="#ffffff"/>
  <path fill="#142033" d="M2,2h1v1h-1zM3,2h1v1h-1zM4,2h1v1h-1zM5,2h1v1h-1zM6,2h1v1h-1zM7,2h1v1h-1zM8,2h1v1h-1zM10,2h1v1h-1zM11,2h1v1h-1zM14,2h1v1h-1zM15,2h1v1h-1zM16,2h1v1h-1zM17,2h1v1h-1zM19,2h1v1h-1zM20,2h1v1h-1zM25,2h1v1h-1zM28,2h1v1h-1zM29,2h1v1h-1zM30,2h1v1h-1zM31,2h1v1h-1zM32,2h1v1h-1zM33,2h1v1h-1zM34,2h1v1h-1zM2,3h1v1h-1zM8,3h1v1h-1zM11,3h1v1h-1zM13,3h1v1h-1zM15,3h1v1h-1zM16,3h1v1h-1zM18,3h1v1h-1zM21,3h1v1h-1zM23,3h1v1h-1zM28,3h1v1h-1zM34,3h1v1h-1zM2,4h1v1h-1zM4,4h1v1h-1zM5,4h1v1h-1zM6,4h1v1h-1zM8,4h1v1h-1zM11,4h1v1h-1zM12,4h1v1h-1zM13,4h1v1h-1zM14,4h1v1h-1zM16,4h1v1h-1zM19,4h1v1h-1zM21,4h1v1h-1zM22,4h1v1h-1zM23,4h1v1h-1zM25,4h1v1h-1zM28,4h1v1h-1zM30,4h1v1h-1zM31,4h1v1h-1zM32,4h1v1h-1zM34,4h1v1h-1zM2,5h1v1h-1zM4,5h1v1h-1zM5,5h1v1h-1zM6,5h1v1h-1zM8,5h1v1h-1zM10,5h1v1h-1zM12,5h1v1h-1zM13,5h1v1h-1zM18,5h1v1h-1zM20,5h1v1h-1zM24,5h1v1h-1zM25,5h1v1h-1zM26,5h1v1h-1zM28,5h1v1h-1zM30,5h1v1h-1zM31,5h1v1h-1zM32,5h1v1h-1zM34,5h1v1h-1zM2,6h1v1h-1zM4,6h1v1h-1zM5,6h1v1h-1zM6,6h1v1h-1zM8,6h1v1h-1zM10,6h1v1h-1zM18,6h1v1h-1zM19,6h1v1h-1zM20,6h1v1h-1zM23,6h1v1h-1zM25,6h1v1h-1zM28,6h1v1h-1zM30,6h1v1h-1zM31,6h1v1h-1zM32,6h1v1h-1zM34,6h1v1h-1zM2,7h1v1h-1zM8,7h1v1h-1zM10,7h1v1h-1zM13,7h1v1h-1zM14,7h1v1h-1zM17,7h1v1h-1zM20,7h1v1h-1zM21,7h1v1h-1zM23,7h1v1h-1zM24,7h1v1h-1zM26,7h1v1h-1zM28,7h1v1h-1zM34,7h1v1h-1zM2,8h1v1h-1zM3,8h1v1h-1zM4,8h1v1h-1zM5,8h1v1h-1zM6,8h1v1h-1zM7,8h1v1h-1zM8,8h1v1h-1zM10,8h1v1h-1zM12,8h1v1h-1zM14,8h1v1h-1zM16,8h1v1h-1zM18,8h1v1h-1zM20,8h1v1h-1zM22,8h1v1h-1zM24,8h1v1h-1zM26,8h1v1h-1zM28,8h1v1h-1zM29,8h1v1h-1zM30,8h1v1h-1zM31,8h1v1h-1zM32,8h1v1h-1zM33,8h1v1h-1zM34,8h1v1h-1zM10,9h1v1h-1zM12,9h1v1h-1zM13,9h1v1h-1zM14,9h1v1h-1zM16,9h1v1h-1zM19,9h1v1h-1zM20,9h1v1h-1zM22,9h1v1h-1zM23,9h1v1h-1zM24,9h1v1h-1zM2,10h1v1h-1zM6,10h1v1h-1zM8,10h1v1h-1zM9,10h1v1h-1zM10,10h1v1h-1zM11,10h1v1h-1zM12,10h1v1h-1zM17,10h1v1h-1zM19,10h1v1h-1zM21,10h1v1h-1zM22,10h1v1h-1zM23,10h1v1h-1zM24,10h1v1h-1zM26,10h1v1h-1zM27,10h1v1h-1zM28,10h1v1h-1zM29,10h1v1h-1zM30,10h1v1h-1zM31,10h1v1h-1zM34,10h1v1h-1zM2,11h1v1h-1zM5,11h1v1h-1zM9,11h1v1h-1zM10,11h1v1h-1zM11,11h1v1h-1zM13,11h1v1h-1zM17,11h1v1h-1zM18,11h1v1h-1zM23,11h1v1h-1zM25,11h1v1h-1zM27,11h1v1h-1zM31,11h1v1h-1zM32,11h1v1h-1zM33,11h1v1h-1zM2,12h1v1h-1zM4,12h1v1h-1zM6,12h1v1h-1zM7,12h1v1h-1zM8,12h1v1h-1zM9,12h1v1h-1zM11,12h1v1h-1zM12,12h1v1h-1zM13,12h1v1h-1zM15,12h1v1h-1zM16,12h1v1h-1zM17,12h1v1h-1zM19,12h1v1h-1zM20,12h1v1h-1zM23,12h1v1h-1zM25,12h1v1h-1zM27,12h1v1h-1zM28,12h1v1h-1zM31,12h1v1h-1zM33,12h1v1h-1zM2,13h1v1h-1zM3,13h1v1h-1zM4,13h1v1h-1zM5,13h1v1h-1zM9,13h1v1h-1zM14,13h1v1h-1zM15,13h1v1h-1zM17,13h1v1h-1zM18,13h1v1h-1zM19,13h1v1h-1zM20,13h1v1h-1zM21,13h1v1h-1zM22,13h1v1h-1zM23,13h1v1h-1zM26,13h1v1h-1zM27,13h1v1h-1zM33,13h1v1h-1zM34,13h1v1h-1zM3,14h1v1h-1zM4,14h1v1h-1zM8,14h1v1h-1zM12,14h1v1h-1zM15,14h1v1h-1zM17,14h1v1h-1zM18,14h1v1h-1zM19,14h1v1h-1zM20,14h1v1h-1zM23,14h1v1h-1zM24,14h1v1h-1zM25,14h1v1h-1zM28,14h1v1h-1zM30,14h1v1h-1zM31,14h1v1h-1zM34,14h1v1h-1zM2,15h1v1h-1zM4,15h1v1h-1zM5,15h1v1h-1zM6,15h1v1h-1zM9,15h1v1h-1zM10,15h1v1h-1zM12,15h1v1h-1zM13,15h1v1h-1zM15,15h1v1h-1zM16,15h1v1h-1zM20,15h1v1h-1zM24,15h1v1h-1zM25,15h1v1h-1zM31,15h1v1h-1zM32,15h1v1h-1zM3,16h1v1h-1zM4,16h1v1h-1zM5,16h1v1h-1zM7,16h1v1h-1zM8,16h1v1h-1zM9,16h1v1h-1zM10,16h1v1h-1zM11,16h1v1h-1zM13,16h1v1h-1zM17,16h1v1h-1zM19,16h1v1h-1zM20,16h1v1h-1zM24,16h1v1h-1zM25,16h1v1h-1zM26,16h1v1h-1zM27,16h1v1h-1zM28,16h1v1h-1zM29,16h1v1h-1zM30,16h1v1h-1zM32,16h1v1h-1zM33,16h1v1h-1zM2,17h1v1h-1zM3,17h1v1h-1zM6,17h1v1h-1zM9,17h1v1h-1zM10,17h1v1h-1zM16,17h1v1h-1zM17,17h1v1h-1zM18,17h1v1h-1zM19,17h1v1h-1zM22,17h1v1h-1zM23,17h1v1h-1zM25,17h1v1h-1zM26,17h1v1h-1zM27,17h1v1h-1zM28,17h1v1h-1zM29,17h1v1h-1zM3,18h1v1h-1zM4,18h1v1h-1zM6,18h1v1h-1zM7,18h1v1h-1zM8,18h1v1h-1zM9,18h1v1h-1zM10,18h1v1h-1zM11,18h1v1h-1zM13,18h1v1h-1zM14,18h1v1h-1zM16,18h1v1h-1zM19,18h1v1h-1zM21,18h1v1h-1zM22,18h1v1h-1zM23,18h1v1h-1zM24,18h1v1h-1zM26,18h1v1h-1zM28,18h1v1h-1zM30,18h1v1h-1zM31,18h1v1h-1zM33,18h1v1h-1zM4,19h1v1h-1zM5,19h1v1h-1zM6,19h1v1h-1zM12,19h1v1h-1zM13,19h1v1h-1zM15,19h1v1h-1zM16,19h1v1h-1zM17,19h1v1h-1zM18,19h1v1h-1zM19,19h1v1h-1zM20,19h1v1h-1zM22,19h1v1h-1zM24,19h1v1h-1zM25,19h1v1h-1zM27,19h1v1h-1zM31,19h1v1h-1zM32,19h1v1h-1zM33,19h1v1h-1zM2,20h1v1h-1zM5,20h1v1h-1zM6,20h1v1h-1zM7,20h1v1h-1zM8,20h1v1h-1zM11,20h1v1h-1zM13,20h1v1h-1zM14,20h1v1h-1zM16,20h1v1h-1zM17,20h1v1h-1zM18,20h1v1h-1zM20,20h1v1h-1zM22,20h1v1h-1zM24,20h1v1h-1zM25,20h1v1h-1zM26,20h1v1h-1zM29,20h1v1h-1zM31,20h1v1h-1zM33,20h1v1h-1zM2,21h1v1h-1zM3,21h1v1h-1zM4,21h1v1h-1zM7,21h1v1h-1zM10,21h1v1h-1zM12,21h1v1h-1zM13,21h1v1h-1zM14,21h1v1h-1zM16,21h1v1h-1zM19,21h1v1h-1zM20,21h1v1h-1zM22,21h1v1h-1zM23,21h1v1h-1zM25,21h1v1h-1zM26,21h1v1h-1zM29,21h1v1h-1zM33,21h1v1h-1zM2,22h1v1h-1zM4,22h1v1h-1zM5,22h1v1h-1zM6,22h1v1h-1zM7,22h1v1h-1zM8,22h1v1h-1zM9,22h1v1h-1zM15,22h1v1h-1zM17,22h1v1h-1zM20,22h1v1h-1zM21,22h1v1h-1zM22,22h1v1h-1zM23,22h1v1h-1zM24,22h1v1h-1zM26,22h1v1h-1zM28,22h1v1h-1zM30,22h1v1h-1zM31,22h1v1h-1zM33,22h1v1h-1zM2,23h1v1h-1zM3,23h1v1h-1zM4,23h1v1h-1zM6,23h1v1h-1zM7,23h1v1h-1zM9,23h1v1h-1zM12,23h1v1h-1zM13,23h1v1h-1zM14,23h1v1h-1zM16,23h1v1h-1zM18,23h1v1h-1zM19,23h1v1h-1zM20,23h1v1h-1zM25,23h1v1h-1zM27,23h1v1h-1zM29,23h1v1h-1zM32,23h1v1h-1zM33,23h1v1h-1zM5,24h1v1h-1zM8,24h1v1h-1zM10,24h1v1h-1zM11,24h1v1h-1zM18,24h1v1h-1zM19,24h1v1h-1zM22,24h1v1h-1zM24,24h1v1h-1zM25,24h1v1h-1zM28,24h1v1h-1zM29,24h1v1h-1zM30,24h1v1h-1zM31,24h1v1h-1zM32,24h1v1h-1zM33,24h1v1h-1zM5,25h1v1h-1zM6,25h1v1h-1zM7,25h1v1h-1zM12,25h1v1h-1zM16,25h1v1h-1zM19,25h1v1h-1zM22,25h1v1h-1zM23,25h1v1h-1zM24,25h1v1h-1zM25,25h1v1h-1zM27,25h1v1h-1zM28,25h1v1h-1zM29,25h1v1h-1zM30,25h1v1h-1zM33,25h1v1h-1zM34,25h1v1h-1zM2,26h1v1h-1zM3,26h1v1h-1zM4,26h1v1h-1zM5,26h1v1h-1zM6,26h1v1h-1zM8,26h1v1h-1zM12,26h1v1h-1zM16,26h1v1h-1zM17,26h1v1h-1zM19,26h1v1h-1zM21,26h1v1h-1zM22,26h1v1h-1zM23,26h1v1h-1zM24,26h1v1h-1zM26,26h1v1h-1zM27,26h1v1h-1zM28,26h1v1h-1zM29,26h1v1h-1zM30,26h1v1h-1zM34,26h1v1h-1zM10,27h1v1h-1zM11,27h1v1h-1zM12,27h1v1h-1zM13,27h1v1h-1zM15,27h1v1h-1zM17,27h1v1h-1zM19,27h1v1h-1zM26,27h1v1h-1zM30,27h1v1h-1zM32,27h1v1h-1zM33,27h1v1h-1zM2,28h1v1h-1zM3,28h1v1h-1zM4,28h1v1h-1zM5,28h1v1h-1zM6,28h1v1h-1zM7,28h1v1h-1zM8,28h1v1h-1zM10,28h1v1h-1zM13,28h1v1h-1zM14,28h1v1h-1zM15,28h1v1h-1zM16,28h1v1h-1zM17,28h1v1h-1zM18,28h1v1h-1zM20,28h1v1h-1zM24,28h1v1h-1zM26,28h1v1h-1zM28,28h1v1h-1zM30,28h1v1h-1zM31,28h1v1h-1zM33,28h1v1h-1zM2,29h1v1h-1zM8,29h1v1h-1zM12,29h1v1h-1zM14,29h1v1h-1zM18,29h1v1h-1zM21,29h1v1h-1zM22,29h1v1h-1zM23,29h1v1h-1zM26,29h1v1h-1zM30,29h1v1h-1zM33,29h1v1h-1zM34,29h1v1h-1zM2,30h1v1h-1zM4,30h1v1h-1zM5,30h1v1h-1zM6,30h1v1h-1zM8,30h1v1h-1zM10,30h1v1h-1zM12,30h1v1h-1zM14,30h1v1h-1zM16,30h1v1h-1zM18,30h1v1h-1zM22,30h1v1h-1zM23,30h1v1h-1zM24,30h1v1h-1zM26,30h1v1h-1zM27,30h1v1h-1zM28,30h1v1h-1zM29,30h1v1h-1zM30,30h1v1h-1zM31,30h1v1h-1zM33,30h1v1h-1zM34,30h1v1h-1zM2,31h1v1h-1zM4,31h1v1h-1zM5,31h1v1h-1zM6,31h1v1h-1zM8,31h1v1h-1zM14,31h1v1h-1zM16,31h1v1h-1zM20,31h1v1h-1zM25,31h1v1h-1zM26,31h1v1h-1zM28,31h1v1h-1zM29,31h1v1h-1zM30,31h1v1h-1zM32,31h1v1h-1zM2,32h1v1h-1zM4,32h1v1h-1zM5,32h1v1h-1zM6,32h1v1h-1zM8,32h1v1h-1zM11,32h1v1h-1zM12,32h1v1h-1zM16,32h1v1h-1zM17,32h1v1h-1zM19,32h1v1h-1zM20,32h1v1h-1zM23,32h1v1h-1zM24,32h1v1h-1zM28,32h1v1h-1zM29,32h1v1h-1zM30,32h1v1h-1zM2,33h1v1h-1zM8,33h1v1h-1zM11,33h1v1h-1zM15,33h1v1h-1zM16,33h1v1h-1zM17,33h1v1h-1zM18,33h1v1h-1zM19,33h1v1h-1zM20,33h1v1h-1zM23,33h1v1h-1zM26,33h1v1h-1zM2,34h1v1h-1zM3,34h1v1h-1zM4,34h1v1h-1zM5,34h1v1h-1zM6,34h1v1h-1zM7,34h1v1h-1zM8,34h1v1h-1zM10,34h1v1h-1zM11,34h1v1h-1zM16,34h1v1h-1zM19,34h1v1h-1zM22,34h1v1h-1zM23,34h1v1h-1zM24,34h1v1h-1zM25,34h1v1h-1zM26,34h1v1h-1zM28,34h1v1h-1zM31,34h1v1h-1zM34,34h1v1h-1z"/>
</svg>
